<svg xmlns="http://www.w3.org/2000/svg" viewBox="0 0 256 256" role="img" aria-labelledby="title desc">
<title id="title">金門鱟</title><desc id="desc">依真實鱟特徵卡通化：馬蹄形頭胸甲、分節腹甲與筆直尾劍，並非螃蟹。</desc>
<defs><linearGradient id="shell" x1="0" y1="0" x2="1" y2="1"><stop stop-color="#b78a43"/><stop offset=".55" stop-color="#87632f"/><stop offset="1" stop-color="#5e4525"/></linearGradient><filter id="shadow"><feDropShadow dx="0" dy="7" stdDeviation="5" flood-color="#273b2c" flood-opacity=".28"/></filter></defs>
<ellipse cx="128" cy="228" rx="80" ry="13" fill="#557b59" opacity=".2"/>
<g filter="url(#shadow)">
<path d="M128 23C75 23 39 56 35 104c-3 37 22 64 53 76 14 6 27 8 40 8s26-2 40-8c31-12 56-39 53-76-4-48-40-81-93-81Z" fill="url(#shell)" stroke="#49361f" stroke-width="8"/>
<path d="M62 91c16-23 38-35 66-35s50 12 66 35" fill="none" stroke="#d3ad64" stroke-width="7" opacity=".62"/>
<path d="M57 118c23 13 47 18 71 18s48-5 71-18" fill="none" stroke="#4f3b22" stroke-width="6" opacity=".65"/>
<path d="M75 151c18 10 35 14 53 14s35-4 53-14l-12 34c-13 12-26 18-41 18s-28-6-41-18Z" fill="#75562d" stroke="#49361f" stroke-width="7"/>
<path d="M128 198c-3 17-2 34 1 52" fill="none" stroke="#4f3b22" stroke-width="11" stroke-linecap="round"/>
<path d="M128 199l1 51" stroke="#c29855" stroke-width="3" stroke-linecap="round" opacity=".55"/>
<circle cx="82" cy="102" r="6" fill="#25291f"/><circle cx="174" cy="102" r="6" fill="#25291f"/>
<circle cx="80" cy="100" r="2" fill="#f4dfae"/><circle cx="172" cy="100" r="2" fill="#f4dfae"/>
<path d="M80 142 58 158M95 153 75 175M176 142l22 16M161 153l20 22" stroke="#5c4427" stroke-width="7" stroke-linecap="round" opacity=".8"/>
</g></svg>
