<svg xmlns="http://www.w3.org/2000/svg" viewBox="0 0 256 256" role="img" aria-labelledby="t d">
<title id="t">金門鱟守護者</title><desc id="d">溫暖自然卡通風格的金門鱟</desc>
<defs><linearGradient id="shell" x1="0" y1="0" x2="1" y2="1"><stop stop-color="#d7a74f"/><stop offset="1" stop-color="#866027"/></linearGradient></defs>
<ellipse cx="126" cy="224" rx="88" ry="15" fill="#6d8f63" opacity=".2"/>
<path d="M128 30C72 30 38 70 42 122c3 44 39 77 86 77s83-33 86-77c4-52-30-92-86-92Z" fill="url(#shell)" stroke="#5c421e" stroke-width="8"/>
<path d="M128 42v145M72 76c20 13 37 17 56 17s36-4 56-17M57 122c24 10 47 15 71 15s47-5 71-15" fill="none" stroke="#6d4c21" stroke-width="6" opacity=".65"/>
<circle cx="93" cy="105" r="10" fill="#fff7df"/><circle cx="163" cy="105" r="10" fill="#fff7df"/><circle cx="96" cy="106" r="5" fill="#2f3428"/><circle cx="160" cy="106" r="5" fill="#2f3428"/>
<path d="M105 132c13 12 33 12 46 0" fill="none" stroke="#4f351a" stroke-width="6" stroke-linecap="round"/>
<path d="M128 196c-4 20-3 36 2 54" fill="none" stroke="#6d4c21" stroke-width="10" stroke-linecap="round"/>
<path d="M61 146 29 166M70 164 42 190M195 146l32 20M186 164l28 26" fill="none" stroke="#7c5725" stroke-width="9" stroke-linecap="round"/>
<path d="M55 62c-14-13-20-24-18-35 14 2 26 9 36 22M201 62c14-13 20-24 18-35-14 2-26 9-36 22" fill="#83a64e" stroke="#537237" stroke-width="5"/>
</svg>
